<svg xmlns="http://www.w3.org/2000/svg" width="24" height="24" viewBox="0 0 24 24">
  <g id="Group_5482" data-name="Group 5482" transform="translate(-1745 -197)">
    <g id="Group_5481" data-name="Group 5481" transform="translate(1469.136 197)">
      <g id="Ellipse_33" data-name="Ellipse 33" transform="translate(275.864)" fill="rgba(186,197,241,0)" stroke="#c49500" stroke-width="1">
        <circle cx="12" cy="12" r="12" stroke="none"/>
        <circle cx="12" cy="12" r="11.5" fill="none"/>
      </g>
      <path id="Path_11978" data-name="Path 11978" d="M7.106-8.5a2,2,0,0,1-.365,1.113,2.778,2.778,0,0,1-1.071.918A3.717,3.717,0,0,1,3.944-6.1H3.468l.34,2.992H5.253l.1-1.785a4.448,4.448,0,0,0,1.759-.578A3.969,3.969,0,0,0,8.458-6.732,3.127,3.127,0,0,0,8.976-8.5a3.408,3.408,0,0,0-.314-1.479,3.514,3.514,0,0,0-.867-1.148,4.028,4.028,0,0,0-1.258-.748,4.314,4.314,0,0,0-1.522-.264,5.354,5.354,0,0,0-1.743.255,4.1,4.1,0,0,0-1.3.723,6.612,6.612,0,0,0-1.037,1.1l1.36,1a3.147,3.147,0,0,1,1.071-1.062,2.847,2.847,0,0,1,1.479-.382,2.831,2.831,0,0,1,1.207.238,1.769,1.769,0,0,1,.782.68A2.039,2.039,0,0,1,7.106-8.5ZM3.349-.816a1.081,1.081,0,0,0,.349.8,1.182,1.182,0,0,0,.859.34,1.153,1.153,0,0,0,.85-.34,1.094,1.094,0,0,0,.34-.8,1.066,1.066,0,0,0-.34-.791,1.169,1.169,0,0,0-.85-.331,1.2,1.2,0,0,0-.859.331A1.054,1.054,0,0,0,3.349-.816Z" transform="translate(282.864 18)" fill="#c49500"/>
    </g>
  </g>
</svg>
