<svg xmlns="http://www.w3.org/2000/svg" width="18.726" height="22.168" viewBox="0 0 18.726 22.168">
  <path id="Icon_ionic-ios-hourglass" data-name="Icon ionic-ios-hourglass" d="M23.715,24.177h-.274c-.35,0-.646-.048-.683-.4v-.005c-.786-7.312-5.391-7.452-5.391-9.174s4.611-1.862,5.391-9.174V5.42c.038-.35.334-.4.683-.4h.274a.772.772,0,0,0,.775-.716.754.754,0,0,0-.753-.791H6.54a.772.772,0,0,0-.775.716.754.754,0,0,0,.753.791h.3c.35,0,.646.048.683.4v.005c.786,7.312,5.391,7.452,5.391,9.174S8.278,16.461,7.5,23.773v.005c-.038.35-.334.4-.683.4H6.54a.772.772,0,0,0-.775.716.754.754,0,0,0,.753.791H23.736a.751.751,0,0,0,.753-.791A.772.772,0,0,0,23.715,24.177ZM10.14,22.337c1.544-4.294,4.283-3.772,4.283-5.467V13.879c0-1.044-1.98-1.77-3.218-3.465a.421.421,0,0,1,.35-.667h7.151a.419.419,0,0,1,.36.656c-1.216,1.7-3.234,2.432-3.234,3.476V16.87c0,1.679,2.631,1.221,4.294,5.467.151.382.038.861-.371.861H10.511C10.1,23.2,10,22.724,10.14,22.337Z" transform="translate(24.491 25.684) rotate(180)" fill="#fff"/>
</svg>
