<svg id="full_logo_imaigine_onLight" xmlns="http://www.w3.org/2000/svg" width="568" height="170.43" viewBox="0 0 568 170.43">
  <path id="Union_1" data-name="Union 1" d="M135.4,85.215a85.215,85.215,0,1,1,85.215,85.215A85.215,85.215,0,0,1,135.4,85.215Zm9.213,0a76,76,0,1,0,76-76A76.089,76.089,0,0,0,144.611,85.215ZM333.7,154.826A26.891,26.891,0,0,1,322.486,145a26.5,26.5,0,0,1-4.041-14.561h11.286a15.756,15.756,0,0,0,2.509,8.569,18.346,18.346,0,0,0,7.106,6.409,22.88,22.88,0,0,0,10.868,2.439,21.293,21.293,0,0,0,9.614-2.369,19.478,19.478,0,0,0,7.873-7.455q3.134-5.086,3.135-13.167v-9.719a25.707,25.707,0,0,1-7.8,8.465,24.56,24.56,0,0,1-14.073,4.041,32.055,32.055,0,0,1-15.884-4.041A30.069,30.069,0,0,1,321.51,112.05a35.227,35.227,0,0,1-4.32-17.836q0-10.45,4.32-17.9a30.2,30.2,0,0,1,11.565-11.5,32.064,32.064,0,0,1,15.884-4.041,24.567,24.567,0,0,1,14.073,4.041,25.837,25.837,0,0,1,7.8,8.423V62.166h11.147v62.7q0,11.008-4.6,18.463a30.1,30.1,0,0,1-11.844,11.216,32.8,32.8,0,0,1-15.327,3.762A37.348,37.348,0,0,1,333.7,154.826Zm5.782-80.956a19.906,19.906,0,0,0-8.012,7.8,24.578,24.578,0,0,0-3,12.54,24.576,24.576,0,0,0,3,12.54,19.9,19.9,0,0,0,8.012,7.8,22.935,22.935,0,0,0,10.868,2.648,19.514,19.514,0,0,0,9.615-2.648,20.957,20.957,0,0,0,7.8-7.8,24.127,24.127,0,0,0,3.065-12.54,24.873,24.873,0,0,0-1.812-9.823,21.869,21.869,0,0,0-4.807-7.176,21.322,21.322,0,0,0-6.619-4.459,18.466,18.466,0,0,0-7.246-1.532A22.935,22.935,0,0,0,339.485,73.871Zm181.071,49.535a28.93,28.93,0,0,1-10.729-11.774,37.868,37.868,0,0,1-3.831-17.417,37.079,37.079,0,0,1,3.971-17.556,28.807,28.807,0,0,1,11.147-11.705,32.477,32.477,0,0,1,16.65-4.18A31.5,31.5,0,0,1,554,64.744,26.211,26.211,0,0,1,564.377,76.1,39.48,39.48,0,0,1,568,93.657q0,.975-.07,2.02T567.86,97H517.417a28.405,28.405,0,0,0,2.232,9.336,17.529,17.529,0,0,0,6.966,8.082,21.125,21.125,0,0,0,11.147,2.787,22.957,22.957,0,0,0,11.565-2.856,23.57,23.57,0,0,0,8.5-8.709l9.058,5.713a33.669,33.669,0,0,1-12.61,12.193,37.077,37.077,0,0,1-17.905,4.11A29.527,29.527,0,0,1,520.555,123.406Zm35.261-35.879a19.28,19.28,0,0,0-2.239-8.082,16.847,16.847,0,0,0-6.34-6.549,18.4,18.4,0,0,0-9.475-2.369,20.888,20.888,0,0,0-10.937,2.717,17.832,17.832,0,0,0-6.967,7.8,25.15,25.15,0,0,0-2.021,6.48Zm-76.3,38.736V87.248q0-7.943-3.484-11.984t-10.171-4.04a17.572,17.572,0,0,0-8.569,2.02,14.216,14.216,0,0,0-5.713,5.644,16.872,16.872,0,0,0-2.02,8.36v39.014H438.415v-64.1h11.147V72.2a20.4,20.4,0,0,1,19.089-11.426q10.172,0,16.094,6.758t5.922,18.323v40.408Zm-75.243,0v-64.1h11.147v64.1Zm-291.413,0V87.248q0-8.222-3-12.123t-9.265-3.9A15.939,15.939,0,0,0,92.661,73.1a12.6,12.6,0,0,0-5.156,5.5,19.11,19.11,0,0,0-1.812,8.639v39.014H74.546V87.248q0-8.222-3-12.123t-9.265-3.9A15.945,15.945,0,0,0,54.342,73.1a12.608,12.608,0,0,0-5.156,5.5,19.121,19.121,0,0,0-1.811,8.639v39.014H36.228v-64.1H47.376V71.5a20.421,20.421,0,0,1,7.315-8.082,19.719,19.719,0,0,1,10.381-2.648,20.575,20.575,0,0,1,11.5,3.135A18.089,18.089,0,0,1,83.6,72.756a23.44,23.44,0,0,1,8.36-8.987,21.848,21.848,0,0,1,11.426-3A20.34,20.34,0,0,1,114.536,63.7a18.517,18.517,0,0,1,7.036,8.569,34.143,34.143,0,0,1,2.439,13.585v40.408Zm-110.774,0v-64.1H13.237v64.1ZM179.178,115.97a30.731,30.731,0,0,1,0-43.483,30.731,30.731,0,0,1,43.542.059v-8.31h8.954v59.928H222.72v-8.251a30.73,30.73,0,0,1-43.542.058Zm6.32-37.1a21.76,21.76,0,0,0,0,30.783A21.8,21.8,0,0,0,222.72,94.258,21.767,21.767,0,0,0,185.5,78.866Zm63.03,45.3V64.118h8.954v60.045Zm.234-71.633a5.745,5.745,0,0,1-1.756-4.214,5.813,5.813,0,0,1,1.756-4.272,5.743,5.743,0,0,1,4.213-1.755A5.994,5.994,0,0,1,259,48.316a5.748,5.748,0,0,1-1.755,4.214,5.814,5.814,0,0,1-4.273,1.755A5.743,5.743,0,0,1,248.763,52.53ZM404.486,41.057a7.489,7.489,0,0,1,0-10.8,7.636,7.636,0,0,1,10.8,10.8,7.489,7.489,0,0,1-10.8,0ZM2.3,41.057a7.489,7.489,0,0,1,0-10.8,7.467,7.467,0,0,1,5.365-2.23,7.4,7.4,0,0,1,5.434,2.23,7.653,7.653,0,0,1,0,10.8,7.283,7.283,0,0,1-5.434,2.3A7.352,7.352,0,0,1,2.3,41.057Z" transform="translate(0 0)" fill="#273541"/>
</svg>
