<svg xmlns="http://www.w3.org/2000/svg" width="599.891" height="179.999" viewBox="0 0 599.891 179.999">
  <g id="Group_27" data-name="Group 27" transform="translate(-555.104 -33)">
    <path id="Union_1" data-name="Union 1" d="M143.029,88a90,90,0,1,1,90,90A90,90,0,0,1,143.029,88Zm9.73,0a80.27,80.27,0,1,0,80.27-80.27A80.361,80.361,0,0,0,152.759,88Zm199.709,73.519a28.4,28.4,0,0,1-11.847-10.374,27.987,27.987,0,0,1-4.268-15.378h11.92a16.641,16.641,0,0,0,2.65,9.05,19.376,19.376,0,0,0,7.505,6.769,24.165,24.165,0,0,0,11.479,2.576,22.488,22.488,0,0,0,10.154-2.5,20.571,20.571,0,0,0,8.315-7.873q3.31-5.372,3.311-13.907V119.616a27.149,27.149,0,0,1-8.241,8.94,25.939,25.939,0,0,1-14.863,4.268,33.855,33.855,0,0,1-16.776-4.268,31.758,31.758,0,0,1-12.215-12.214q-4.562-7.947-4.562-18.837,0-11.036,4.562-18.91a31.9,31.9,0,0,1,12.215-12.141,33.865,33.865,0,0,1,16.776-4.268,25.946,25.946,0,0,1,14.863,4.268,27.287,27.287,0,0,1,8.241,8.9V63.659h11.773v66.223q0,11.626-4.856,19.5a31.792,31.792,0,0,1-12.509,11.846,34.636,34.636,0,0,1-16.187,3.974A39.445,39.445,0,0,1,352.468,161.521Zm6.107-85.5a21.024,21.024,0,0,0-8.462,8.241,25.959,25.959,0,0,0-3.164,13.244,25.956,25.956,0,0,0,3.164,13.244,21.018,21.018,0,0,0,8.462,8.241,24.223,24.223,0,0,0,11.479,2.8,20.61,20.61,0,0,0,10.155-2.8,22.133,22.133,0,0,0,8.241-8.241,25.481,25.481,0,0,0,3.237-13.244,26.27,26.27,0,0,0-1.913-10.374,23.1,23.1,0,0,0-5.077-7.579,22.519,22.519,0,0,0-6.99-4.71,19.5,19.5,0,0,0-7.653-1.618A24.222,24.222,0,0,0,358.574,76.02Zm191.237,52.316A30.555,30.555,0,0,1,538.48,115.9a39.995,39.995,0,0,1-4.046-18.4,39.161,39.161,0,0,1,4.194-18.542A30.425,30.425,0,0,1,550.4,66.6a34.3,34.3,0,0,1,17.585-4.414q10.008,0,17.145,4.194a27.683,27.683,0,0,1,10.964,11.994q3.826,7.8,3.826,18.542,0,1.03-.074,2.134t-.074,1.4H546.5a30,30,0,0,0,2.358,9.86,18.512,18.512,0,0,0,7.357,8.536,22.311,22.311,0,0,0,11.773,2.943,24.246,24.246,0,0,0,12.215-3.017,24.893,24.893,0,0,0,8.977-9.2l9.566,6.034a35.56,35.56,0,0,1-13.318,12.877,39.159,39.159,0,0,1-18.911,4.341A31.184,31.184,0,0,1,549.812,128.336Zm37.241-37.894a20.362,20.362,0,0,0-2.364-8.536,17.793,17.793,0,0,0-6.7-6.917,19.428,19.428,0,0,0-10.007-2.5,22.061,22.061,0,0,0-11.552,2.869,18.833,18.833,0,0,0-7.358,8.241,26.559,26.559,0,0,0-2.135,6.844Zm-80.581,40.91v-41.2q0-8.389-3.679-12.657t-10.742-4.267A18.559,18.559,0,0,0,483,75.358a15.014,15.014,0,0,0-6.034,5.961,17.819,17.819,0,0,0-2.134,8.83v41.2H463.06V63.659h11.773v10.6a21.549,21.549,0,0,1,20.161-12.067q10.743,0,17,7.137t6.254,19.352v42.677Zm-79.467,0V63.659h11.773v67.694Zm-307.775,0v-41.2q0-8.683-3.164-12.8t-9.786-4.12a16.834,16.834,0,0,0-8.388,1.986,13.306,13.306,0,0,0-5.445,5.813,20.183,20.183,0,0,0-1.913,9.124v41.2H78.761v-41.2q0-8.683-3.164-12.8t-9.786-4.12a16.84,16.84,0,0,0-8.389,1.986,13.316,13.316,0,0,0-5.445,5.813,20.2,20.2,0,0,0-1.913,9.124v41.2H38.291V63.659H50.064v9.86a21.568,21.568,0,0,1,7.726-8.536,20.826,20.826,0,0,1,10.964-2.8A21.731,21.731,0,0,1,80.895,65.5a19.105,19.105,0,0,1,7.431,9.345,24.756,24.756,0,0,1,8.83-9.491,23.075,23.075,0,0,1,12.067-3.164A21.482,21.482,0,0,1,121,65.278a19.557,19.557,0,0,1,7.431,9.05A36.06,36.06,0,0,1,131,88.676v42.677Zm-116.994,0V63.659H14.009v67.694Zm187.031-10.87a32.456,32.456,0,0,1,0-45.924,32.456,32.456,0,0,1,45.986.062V65.844h9.457v63.293h-9.457v-8.715a32.455,32.455,0,0,1-45.986.061ZM195.943,81.3a22.982,22.982,0,0,0,0,32.512,23.024,23.024,0,0,0,39.311-16.256A22.989,22.989,0,0,0,195.943,81.3Zm66.569,47.84V65.72h9.456v63.417Zm.248-75.655a6.068,6.068,0,0,1-1.855-4.451,6.14,6.14,0,0,1,1.855-4.512,6.065,6.065,0,0,1,4.45-1.854,6.33,6.33,0,0,1,6.367,6.366,6.071,6.071,0,0,1-1.854,4.451,6.141,6.141,0,0,1-4.513,1.854A6.065,6.065,0,0,1,262.76,53.482ZM427.226,41.364a7.91,7.91,0,0,1,0-11.4,8.064,8.064,0,0,1,11.4,11.4,7.91,7.91,0,0,1-11.4,0Zm-424.769,0a7.91,7.91,0,0,1,0-11.4A7.886,7.886,0,0,1,8.123,27.6a7.813,7.813,0,0,1,5.739,2.355,8.083,8.083,0,0,1,0,11.4,7.692,7.692,0,0,1-5.739,2.428A7.765,7.765,0,0,1,2.457,41.364Z" transform="translate(555.075 34.998)" fill="#fff"/>
  </g>
</svg>
